<?xml version="1.0" encoding="UTF-8"?>
<!DOCTYPE svg PUBLIC "-//W3C//DTD SVG 1.1//EN" "http://www.w3.org/Graphics/SVG/1.1/DTD/svg11.dtd">
<svg xmlns="http://www.w3.org/2000/svg" version="1.1" width="631px" height="396px" style="shape-rendering:geometricPrecision; text-rendering:geometricPrecision; image-rendering:optimizeQuality; fill-rule:evenodd; clip-rule:evenodd" xmlns:xlink="http://www.w3.org/1999/xlink">
<g><path style="opacity:0.93" fill="#fcfdfc" d="M 346.5,45.5 C 348.397,50.08 347.397,53.9133 343.5,57C 293.833,57.3333 244.167,57.6667 194.5,58C 194,58.5 193.5,59 193,59.5C 192.5,129.833 192.333,200.166 192.5,270.5C 192.172,296.408 192.505,322.241 193.5,348C 267.5,348.667 341.5,348.667 415.5,348C 416.416,347.626 417.25,347.126 418,346.5C 418.5,323.502 418.667,300.502 418.5,277.5C 418.5,224.833 418.5,172.167 418.5,119.5C 402.167,119.5 385.833,119.5 369.5,119.5C 363.668,117.179 359.501,113.179 357,107.5C 356.179,86.7603 356.346,66.0937 357.5,45.5C 363.262,45.1493 368.928,45.6493 374.5,47C 393.667,64.8333 412.167,83.3333 430,102.5C 431.65,186.803 431.984,271.136 431,355.5C 430.727,357.329 429.893,358.829 428.5,360C 424.696,361.05 420.863,361.884 417,362.5C 342.333,361.167 267.667,361.167 193,362.5C 186.245,361.632 181.912,357.965 180,351.5C 179.009,250.457 179.342,149.457 181,48.5C 182.945,47.1367 185.112,46.3034 187.5,46C 240.499,45.5 293.499,45.3333 346.5,45.5 Z"/></g>
<g><path style="opacity:1" fill="#393939" d="M 346.5,45.5 C 350.167,45.5 353.833,45.5 357.5,45.5C 356.346,66.0937 356.179,86.7603 357,107.5C 359.501,113.179 363.668,117.179 369.5,119.5C 385.325,120.496 401.325,120.83 417.5,120.5C 417.5,172.5 417.5,224.5 417.5,276.5C 411.346,272.587 405.346,268.42 399.5,264C 391.677,260.677 383.677,258.177 375.5,256.5C 369.238,254.981 362.738,254.314 356,254.5C 349.262,254.314 342.762,254.981 336.5,256.5C 332.838,256.723 329.505,257.723 326.5,259.5C 322.642,259.77 319.309,261.103 316.5,263.5C 308.438,266.56 301.438,271.227 295.5,277.5C 293.564,278.259 291.731,279.259 290,280.5C 288.862,280.011 287.695,279.678 286.5,279.5C 281.315,277.317 276.649,274.317 272.5,270.5C 270.388,268.229 267.721,266.896 264.5,266.5C 257.718,263.743 250.718,261.743 243.5,260.5C 240.016,259.835 236.349,259.501 232.5,259.5C 226.591,259.349 220.925,260.016 215.5,261.5C 211.467,262.025 207.8,263.358 204.5,265.5C 200.164,265.837 196.497,267.504 193.5,270.5C 193.167,270.5 192.833,270.5 192.5,270.5C 192.333,200.166 192.5,129.833 193,59.5C 193.5,59 194,58.5 194.5,58C 244.167,57.6667 293.833,57.3333 343.5,57C 347.397,53.9133 348.397,50.08 346.5,45.5 Z"/></g>
<g><path style="opacity:1" fill="#363839" d="M 406.5,102.5 C 396.681,103.494 386.681,103.827 376.5,103.5C 375.21,102.942 374.377,101.942 374,100.5C 373.333,90.5 373.333,80.5 374,70.5C 384.702,81.3688 395.535,92.0354 406.5,102.5 Z"/></g>
<g><path style="opacity:1" fill="#939ea4" d="M 406.5,102.5 C 407.043,102.56 407.376,102.893 407.5,103.5C 397.007,104.823 386.674,104.823 376.5,103.5C 386.681,103.827 396.681,103.494 406.5,102.5 Z"/></g>
<g><path style="opacity:1" fill="#6f6f6f" d="M 369.5,119.5 C 385.833,119.5 402.167,119.5 418.5,119.5C 418.5,172.167 418.5,224.833 418.5,277.5C 418.167,277.5 417.833,277.5 417.5,277.5C 417.5,277.167 417.5,276.833 417.5,276.5C 417.5,224.5 417.5,172.5 417.5,120.5C 401.325,120.83 385.325,120.496 369.5,119.5 Z"/></g>
<g><path style="opacity:1" fill="#626262" d="M 252.5,148.5 C 285.168,148.333 317.835,148.5 350.5,149C 353.071,149.901 355.404,151.234 357.5,153C 359.993,156.308 360.159,159.808 358,163.5C 355.749,165.377 353.249,166.877 350.5,168C 317.833,168.667 285.167,168.667 252.5,168C 246.612,164.153 245.112,158.987 248,152.5C 249.397,150.93 250.897,149.596 252.5,148.5 Z"/></g>
<g><path style="opacity:0.997" fill="#f4f4f4" d="M 108.5,175.5 C 111.833,175.5 115.167,175.5 118.5,175.5C 118.5,177.5 118.5,179.5 118.5,181.5C 114.332,199.259 103.332,205.759 85.5,201C 78.8854,196.719 72.5521,192.053 66.5,187C 54.5813,183.468 48.5813,187.968 48.5,200.5C 44.5,200.5 40.5,200.5 36.5,200.5C 36.5743,184.342 44.5743,175.009 60.5,172.5C 63.9561,172.818 67.2894,173.652 70.5,175C 76.7794,178.946 82.7794,183.279 88.5,188C 94.7145,191.77 100.215,190.936 105,185.5C 106.486,182.15 107.653,178.816 108.5,175.5 Z"/></g>
<g><path style="opacity:0.996" fill="#f2f2f2" d="M 529.5,172.5 C 534.333,172.375 539,173.208 543.5,175C 550.115,179.281 556.448,183.947 562.5,189C 567.913,191.459 572.747,190.626 577,186.5C 578.73,182.739 580.23,178.905 581.5,175C 584.833,174.333 588.167,174.333 591.5,175C 592.441,188.077 586.774,197.077 574.5,202C 566.072,203.642 558.405,201.975 551.5,197C 546.588,191.077 540.422,187.244 533,185.5C 530.019,185.657 527.352,186.657 525,188.5C 522.783,192.094 521.283,195.927 520.5,200C 516.848,200.499 513.182,200.665 509.5,200.5C 508.878,185.81 515.545,176.477 529.5,172.5 Z"/></g>
<g><path style="opacity:0.173" fill="#808080" d="M 108.5,175.5 C 111.962,174.518 115.629,174.185 119.5,174.5C 119.802,177.059 119.468,179.393 118.5,181.5C 118.5,179.5 118.5,177.5 118.5,175.5C 115.167,175.5 111.833,175.5 108.5,175.5 Z"/></g>
<g><path style="opacity:1" fill="#626262" d="M 254.5,204.5 C 284.169,204.333 313.835,204.5 343.5,205C 354.38,206.496 357.047,211.829 351.5,221C 349.192,222.867 346.525,223.867 343.5,224C 314.167,224.667 284.833,224.667 255.5,224C 248.943,221.315 246.777,216.481 249,209.5C 250.73,207.598 252.563,205.931 254.5,204.5 Z"/></g>
<g><path style="opacity:1" fill="#40683b" d="M 375.5,256.5 C 362.499,255.197 349.499,255.197 336.5,256.5C 342.762,254.981 349.262,254.314 356,254.5C 362.738,254.314 369.238,254.981 375.5,256.5 Z"/></g>
<g><path style="opacity:1" fill="#46913e" d="M 375.5,256.5 C 383.677,258.177 391.677,260.677 399.5,264C 405.346,268.42 411.346,272.587 417.5,276.5C 417.5,276.833 417.5,277.167 417.5,277.5C 417.824,281.555 417.491,285.555 416.5,289.5C 390.925,309.553 362.259,315.386 330.5,307C 324.655,303.942 318.655,301.276 312.5,299C 304.829,292.796 296.829,287.296 288.5,282.5C 291.643,282.031 293.977,280.364 295.5,277.5C 301.438,271.227 308.438,266.56 316.5,263.5C 320.397,263.274 323.73,261.941 326.5,259.5C 329.505,257.723 332.838,256.723 336.5,256.5C 349.499,255.197 362.499,255.197 375.5,256.5 Z"/></g>
<g><path style="opacity:1" fill="#477842" d="M 243.5,260.5 C 234.148,260.434 224.815,260.768 215.5,261.5C 220.925,260.016 226.591,259.349 232.5,259.5C 236.349,259.501 240.016,259.835 243.5,260.5 Z"/></g>
<g><path style="opacity:1" fill="#57ba4c" d="M 243.5,260.5 C 250.718,261.743 257.718,263.743 264.5,266.5C 266.612,268.771 269.279,270.104 272.5,270.5C 276.649,274.317 281.315,277.317 286.5,279.5C 287.167,280.5 287.833,281.5 288.5,282.5C 296.829,287.296 304.829,292.796 312.5,299C 318.655,301.276 324.655,303.942 330.5,307C 362.259,315.386 390.925,309.553 416.5,289.5C 417.491,285.555 417.824,281.555 417.5,277.5C 417.833,277.5 418.167,277.5 418.5,277.5C 418.667,300.502 418.5,323.502 418,346.5C 417.25,347.126 416.416,347.626 415.5,348C 341.5,348.667 267.5,348.667 193.5,348C 192.505,322.241 192.172,296.408 192.5,270.5C 192.833,270.5 193.167,270.5 193.5,270.5C 197.593,269.618 201.26,267.951 204.5,265.5C 207.8,263.358 211.467,262.025 215.5,261.5C 224.815,260.768 234.148,260.434 243.5,260.5 Z"/></g>
<g><path style="opacity:1" fill="#416a3c" d="M 326.5,259.5 C 323.73,261.941 320.397,263.274 316.5,263.5C 319.309,261.103 322.642,259.77 326.5,259.5 Z"/></g>
<g><path style="opacity:1" fill="#4d8c45" d="M 204.5,265.5 C 201.26,267.951 197.593,269.618 193.5,270.5C 196.497,267.504 200.164,265.837 204.5,265.5 Z"/></g>
<g><path style="opacity:1" fill="#487942" d="M 264.5,266.5 C 267.721,266.896 270.388,268.229 272.5,270.5C 269.279,270.104 266.612,268.771 264.5,266.5 Z"/></g>
<g><path style="opacity:1" fill="#3f5b3c" d="M 295.5,277.5 C 293.977,280.364 291.643,282.031 288.5,282.5C 287.833,281.5 287.167,280.5 286.5,279.5C 287.695,279.678 288.862,280.011 290,280.5C 291.731,279.259 293.564,278.259 295.5,277.5 Z"/></g>
</svg>
